<svg width="20" height="20" viewBox="0 0 20 20" fill="none" xmlns="http://www.w3.org/2000/svg">
<path d="M8.57453 19.5042C8.09854 19.4307 7.5328 19.2697 5.54227 18.6413L4.07154 18.177H3.434H2.79646V14.6814V11.1858H4.25738C5.18856 11.1858 5.76286 11.2028 5.84118 11.2325C5.90876 11.2582 6.25984 11.5728 6.62137 11.9317L7.27869 12.5841H9.13709C11.2375 12.5841 11.2828 12.5899 11.5824 12.8986C12.0786 13.4099 11.9278 14.2295 11.2732 14.5781C11.1342 14.6521 10.9716 14.6615 9.48874 14.6814L7.85719 14.7033L7.77372 14.8064C7.65662 14.9511 7.66732 15.1431 7.79989 15.2756L7.90953 15.3853L9.58045 15.372L11.2514 15.3587L11.5105 15.2373C12.0136 15.0017 12.329 14.6447 12.5174 14.0977L12.6092 13.831L14.9889 12.532C17.6101 11.1011 17.629 11.0931 18.1551 11.1807C18.5646 11.2489 18.8751 11.4073 19.1089 11.6674C19.6948 12.319 19.7147 13.2747 19.1562 13.9362C19.0199 14.0976 11.9171 18.8361 11.4828 19.0553C10.601 19.5005 9.57585 19.6587 8.57453 19.5042ZM0 14.6814V10.4867L0.77558 10.4877C1.71049 10.4888 1.8694 10.5349 2.01047 10.8457C2.09244 11.0263 2.09542 11.1611 2.09542 14.6814C2.09542 18.2017 2.09244 18.3365 2.01047 18.5171C1.8694 18.8279 1.71049 18.874 0.77558 18.8751L0 18.8761V14.6814ZM6.61782 11.0824C5.87647 10.7371 5.25897 9.3038 4.99646 7.31885C4.89177 6.52726 4.89177 4.65857 4.99646 3.86698C5.25897 1.88203 5.87647 0.448699 6.61782 0.103481C6.73904 0.0470361 6.90703 0.000853745 6.99115 0.000853745C7.72245 0.000853745 8.42421 1.08645 8.79829 2.79646C9.00552 3.74374 9.06171 4.34025 9.06171 5.59292C9.06171 6.84558 9.00552 7.44209 8.79829 8.38937C8.42421 10.0994 7.72245 11.185 6.99115 11.185C6.90703 11.185 6.73904 11.1388 6.61782 11.0824ZM8.5399 10.9222C8.64662 10.7773 8.74622 10.62 8.76123 10.5727C8.78686 10.4919 8.82995 10.4868 9.47376 10.4882L10.159 10.4898L9.89207 10.7435C9.49698 11.1191 9.3309 11.1858 8.79077 11.1858H8.34586L8.5399 10.9222ZM13.609 11.0824C12.8676 10.7371 12.2501 9.3038 11.9876 7.31885C11.9328 6.90408 11.9125 6.43841 11.9125 5.59292C11.9125 4.33166 11.9707 3.71139 12.1749 2.79646C12.3357 2.07561 12.4748 1.6554 12.7169 1.15791C13.0682 0.436274 13.5444 0.000853745 13.9823 0.000853745C14.7136 0.000853745 15.4154 1.08645 15.7894 2.79646C15.9967 3.74374 16.0529 4.34025 16.0529 5.59292C16.0529 6.84558 15.9967 7.44209 15.7894 8.38937C15.4154 10.0994 14.7136 11.185 13.9823 11.185C13.8982 11.185 13.7302 11.1388 13.609 11.0824ZM15.531 10.9222C15.6378 10.7773 15.7374 10.62 15.7524 10.5727C15.778 10.4919 15.8211 10.4868 16.4649 10.4882L17.1502 10.4898L16.8832 10.7435C16.4881 11.1191 16.322 11.1858 15.7819 11.1858H15.337L15.531 10.9222ZM9.17644 9.75483C9.17675 9.73681 9.21572 9.59855 9.26305 9.4476C9.31037 9.29664 9.40841 8.88373 9.48091 8.53001C9.55342 8.17629 9.62297 7.84264 9.63546 7.78857C9.65785 7.6917 9.66837 7.69026 10.3514 7.69026H11.0446L10.9857 7.99933C10.9077 8.40865 10.683 9.24629 10.5704 9.54702L10.4804 9.7876H9.82816C9.4694 9.7876 9.17613 9.77286 9.17644 9.75483ZM16.1676 9.75483C16.1679 9.73681 16.2069 9.59855 16.2542 9.4476C16.3015 9.29664 16.3996 8.88373 16.4721 8.53001C16.5446 8.17629 16.6141 7.84264 16.6266 7.78857C16.649 7.6917 16.6595 7.69026 17.3425 7.69026H18.0357L17.9768 7.99933C17.8989 8.40865 17.6741 9.24629 17.5616 9.54702L17.4716 9.7876H16.8193C16.4605 9.7876 16.1673 9.77286 16.1676 9.75483ZM9.75574 6.67436C9.77759 6.50013 9.78693 5.87044 9.7765 5.27505L9.75754 4.19254L10.4389 4.20454L11.1203 4.21653L11.1559 4.54424C11.1972 4.92499 11.1724 6.86321 11.1252 6.93953C11.1028 6.97569 10.8871 6.99114 10.4046 6.99114H9.71601L9.75574 6.67436ZM16.7469 6.67436C16.7687 6.50013 16.7781 5.87044 16.7676 5.27505L16.7487 4.19254L17.4301 4.20454L18.1114 4.21653L18.147 4.54424C18.1883 4.92499 18.1635 6.86321 18.1163 6.93953C18.094 6.97569 17.8782 6.99114 17.3958 6.99114H16.7072L16.7469 6.67436ZM9.64042 3.41911C9.62832 3.37705 9.57595 3.12635 9.52404 2.862C9.47213 2.59765 9.35605 2.16015 9.26609 1.88979L9.10253 1.39823H9.79148H10.4804L10.5704 1.63881C10.683 1.93954 10.9077 2.77718 10.9857 3.1865L11.0446 3.49557H10.3535C9.73283 3.49557 9.66017 3.48778 9.64042 3.41911ZM16.6316 3.41911C16.6195 3.37705 16.5671 3.12635 16.5152 2.862C16.4633 2.59765 16.3472 2.16015 16.2572 1.88979L16.0937 1.39823H16.7826H17.4716L17.5616 1.63881C17.6741 1.93954 17.8989 2.77718 17.9768 3.1865L18.0357 3.49557H17.3446C16.724 3.49557 16.6513 3.48778 16.6316 3.41911ZM8.63981 0.44544C8.54925 0.308592 8.44362 0.152385 8.40508 0.098313L8.33502 0H8.78535C9.3315 0 9.49594 0.0657182 9.89207 0.442301L10.159 0.696071L9.48174 0.695163L8.80447 0.694254L8.63981 0.44544ZM15.631 0.44544C15.5404 0.308592 15.4348 0.152385 15.3962 0.098313L15.3262 0H15.7765C16.3226 0 16.4871 0.0657182 16.8832 0.442301L17.1502 0.696071L16.4729 0.695163L15.7956 0.694254L15.631 0.44544Z" fill="#5391F6"/>
</svg>
