<svg width="20" height="20" viewBox="0 0 20 20" fill="none" xmlns="http://www.w3.org/2000/svg">
<path d="M5.96034 19.2643C5.89377 19.2223 4.67287 18.0193 3.24723 16.591C0.817607 14.1568 0.655151 13.9853 0.655151 13.8544C0.655151 13.7256 0.73709 13.6328 1.71502 12.6549C2.6941 11.6758 2.78556 11.595 2.9149 11.595C3.04639 11.595 3.21775 11.7579 5.72802 14.2681C8.2383 16.7784 8.40113 16.9498 8.40113 17.0813C8.40113 17.2106 8.32034 17.3021 7.34126 18.2812C6.20585 19.4166 6.20384 19.418 5.96034 19.2643ZM6.25283 13.8901C5.03798 12.6715 4.04402 11.6583 4.04402 11.6385C4.04402 11.5772 4.69107 11.0276 5.00267 10.8242C5.2946 10.6336 5.54645 10.5225 5.97992 10.393C6.17811 10.3338 6.6095 10.3251 9.93023 10.3137C12.4476 10.305 13.7248 10.3147 13.8637 10.3436C14.3825 10.4514 14.8024 10.7823 15.0299 11.2626C15.1468 11.5093 15.1587 11.5702 15.1587 11.9199C15.1587 12.2842 15.1504 12.3221 15.0068 12.6126C14.7784 13.0747 14.402 13.3784 13.9198 13.4896C13.8188 13.5129 12.9434 13.53 11.8184 13.5305L9.89018 13.5315L9.79115 13.6306C9.72873 13.693 9.69213 13.7757 9.69213 13.8543C9.69213 13.9329 9.72873 14.0156 9.79115 14.078L9.89018 14.177H11.8211C13.0151 14.177 13.8434 14.1606 13.9914 14.1339C14.3862 14.0628 14.8533 13.8123 15.1565 13.5091C15.847 12.8186 16.0111 11.8106 15.5785 10.9168L15.412 10.5727L16.5158 9.47611C17.8417 8.15892 17.8617 8.14566 18.5274 8.14566C18.9251 8.14566 18.9658 8.15347 19.1931 8.27333C19.5029 8.43673 19.7441 8.68694 19.8869 8.99288C19.9812 9.195 19.9998 9.28819 19.9994 9.55769C19.9986 10.1791 20.0974 10.0076 17.9848 13.0578C16.4639 15.2536 16.179 15.5592 15.3338 15.9006C14.8299 16.1041 14.7023 16.1109 11.4672 16.1082L8.46165 16.1057L6.25283 13.8901ZM9.8535 8.98962C9.79803 8.9798 9.64372 8.95288 9.51058 8.92979C9.16347 8.86961 8.67058 8.70277 8.32044 8.52693C7.06977 7.89886 6.19961 6.74965 5.89342 5.3216C5.82658 5.00985 5.82627 3.98139 5.89293 3.66752C6.28926 1.80122 7.63904 0.451626 9.51058 0.0503581C9.82375 -0.016786 10.8515 -0.016786 11.1647 0.0503581C13.0401 0.452469 14.3797 1.79204 14.7818 3.66752C14.8106 3.80178 14.8337 4.17008 14.8337 4.49456C14.8337 5.10973 14.7971 5.35518 14.626 5.88642C14.1338 7.41414 12.8454 8.57176 11.2534 8.91656C10.9708 8.97775 10.0561 9.0255 9.8535 8.98962ZM10.5613 7.62303C10.6531 7.53127 10.6604 7.49478 10.6604 7.12592V6.72784L10.8593 6.63793C11.1136 6.52299 11.3535 6.28971 11.4958 6.01892C11.5934 5.83322 11.6077 5.76151 11.6062 5.46281C11.6048 5.17096 11.5883 5.08854 11.4956 4.90943C11.2713 4.47652 10.9188 4.2415 10.3965 4.17665C9.95412 4.12172 9.74244 3.94478 9.70326 3.59715C9.66426 3.25111 9.92224 2.93078 10.2717 2.8914C10.6237 2.85172 10.9187 3.1009 10.9802 3.48993C11.0355 3.84033 11.3122 3.96742 11.5349 3.74475C11.6293 3.65035 11.6372 3.61846 11.6183 3.40939C11.5782 2.96808 11.2837 2.55509 10.8757 2.36831L10.6604 2.26974V1.86743C10.6604 1.49408 10.6532 1.45799 10.5613 1.36609C10.4303 1.23508 10.2449 1.23508 10.1139 1.36609C10.022 1.45799 10.0149 1.49408 10.0149 1.86743V2.26974L9.80307 2.36789C9.53906 2.49022 9.3203 2.70229 9.17771 2.97411C9.0831 3.15447 9.06799 3.23078 9.06836 3.52631C9.06872 3.80797 9.08646 3.90527 9.16769 4.07095C9.37967 4.5033 9.75602 4.75638 10.2732 4.81438C10.5056 4.84044 10.6137 4.87401 10.7157 4.95184C11.0781 5.22824 11.0638 5.7223 10.6852 6.00495C10.529 6.12159 10.1463 6.12159 9.99007 6.00495C9.81116 5.87138 9.73288 5.73819 9.69594 5.50455C9.6397 5.14874 9.36475 5.01999 9.14036 5.24437C9.04616 5.33858 9.03806 5.37089 9.05682 5.57775C9.09728 6.02396 9.38989 6.43462 9.80628 6.62958L10.0149 6.72725V7.12563C10.0149 7.4948 10.0221 7.53126 10.1139 7.62303C10.1763 7.68545 10.259 7.72205 10.3376 7.72205C10.4162 7.72205 10.4989 7.68545 10.5613 7.62303Z" fill="#5391F6"/>
</svg>
