<svg width="22" height="18" viewBox="0 0 22 18" fill="none" xmlns="http://www.w3.org/2000/svg">
<path d="M2.16417 17.064C1.95509 16.9538 1.85772 16.8421 1.58714 16.4017C0.207801 14.1572 -0.30399 11.4033 0.176062 8.80898C0.787207 5.50618 2.90014 2.6726 5.88153 1.15757C6.98714 0.595734 7.98351 0.272392 9.19758 0.0814356C9.88086 -0.0260364 11.7176 -0.0274294 12.3886 0.0790129C13.693 0.285935 15.2111 0.79584 15.511 1.12774C15.9974 1.66612 15.6306 2.51364 14.9096 2.51734C14.7925 2.51794 14.5391 2.44524 14.1914 2.31132C13.3806 1.99901 12.8072 1.84695 12.0401 1.74077L11.6477 1.68646V2.41023C11.6477 3.07753 11.6402 3.14852 11.5526 3.32004C11.5003 3.42235 11.3845 3.5642 11.2952 3.63525C11.1454 3.75445 11.1074 3.76442 10.8028 3.76442C10.4982 3.76442 10.4602 3.75445 10.3104 3.63525C10.2211 3.5642 10.1053 3.42235 10.053 3.32004C9.96536 3.14852 9.95794 3.07753 9.95794 2.41023V1.68646L9.5672 1.74069C8.0111 1.95666 6.52285 2.57484 5.2708 3.52528C4.47174 4.13186 3.55371 5.14641 3.0563 5.97263C3.03298 6.01136 3.20549 6.11312 3.67144 6.33547C4.37133 6.66944 4.54715 6.81163 4.63889 7.11781C4.74821 7.48271 4.55531 7.91963 4.20626 8.0977C3.90433 8.25174 3.66555 8.20517 2.92753 7.84832C2.58068 7.6806 2.28312 7.55803 2.2663 7.57594C2.24947 7.59385 2.18511 7.77008 2.12327 7.96757C1.53201 9.85565 1.54161 11.8163 2.15107 13.6429C2.33877 14.2055 2.78754 15.1911 2.85599 15.1911C2.87969 15.1911 3.14959 15.0675 3.45577 14.9165C4.08608 14.6056 4.32283 14.567 4.63174 14.7245C5.17338 15.0009 5.25118 15.7655 4.77357 16.1186C4.7074 16.1675 4.22752 16.416 3.70715 16.6709C2.84173 17.0947 2.74099 17.1341 2.52597 17.1325C2.39643 17.1316 2.234 17.1009 2.16417 17.064ZM17.8784 16.6715C16.864 16.1885 16.6752 16.0724 16.5685 15.8661C16.2734 15.2955 16.6719 14.6419 17.3148 14.6419C17.4994 14.6419 17.6324 14.6875 18.1171 14.9165C18.4366 15.0675 18.7193 15.1911 18.7454 15.1911C18.7714 15.1911 18.9031 14.9582 19.038 14.6736C20.0792 12.4771 20.2086 9.97486 19.3971 7.72982C19.3142 7.50046 19.1978 7.17999 19.1383 7.01766C19.0408 6.75131 19.0349 6.70208 19.0785 6.51328C19.1723 6.10681 19.4804 5.85544 19.8846 5.85544C20.4291 5.85544 20.6366 6.11993 21.0499 7.34118C21.9458 9.98847 21.7641 12.8652 20.539 15.4319C20.2688 15.998 19.8642 16.694 19.7004 16.8743C19.5529 17.0368 19.3179 17.1342 19.0735 17.1342C18.8765 17.1341 18.7349 17.0793 17.8784 16.6715ZM10.317 13.2639C9.72659 13.1146 9.19131 12.798 8.87399 12.4103C8.51489 11.9716 8.2697 11.3088 8.2697 10.7767C8.2697 10.198 8.56625 9.45567 8.9553 9.06049C9.24923 8.76194 10.0541 8.15556 11.7321 6.96835C13.4694 5.73926 17.2669 3.12378 17.4384 3.03822C17.6483 2.93352 18.0625 2.97834 18.2572 3.1268C18.5611 3.35862 18.6871 3.7355 18.5691 4.06012C18.4805 4.30407 14.6869 9.79105 13.3851 11.5582C12.7792 12.3808 12.542 12.6455 12.2154 12.864C11.7649 13.1653 11.4729 13.2549 10.8873 13.2715C10.6201 13.2791 10.3635 13.2756 10.317 13.2639ZM11.1527 11.5435C11.322 11.4726 11.4998 11.2768 11.9627 10.6512C12.4932 9.93416 14.4455 7.16022 14.4288 7.14717C14.3955 7.12116 10.8026 9.68947 10.3778 10.0429C10.0935 10.2796 9.96037 10.5098 9.95887 10.7675C9.95709 11.0747 10.1736 11.42 10.4437 11.5406C10.6087 11.6142 10.9802 11.6157 11.1527 11.5435Z" fill="#5391F6"/>
</svg>
