<svg width="14" height="23" viewBox="0 0 14 23" fill="none" xmlns="http://www.w3.org/2000/svg">
<path opacity="0.7" d="M6.1074 22.1948V0.246752H7.51344V22.1948H6.1074ZM10.5056 7.05408C10.4141 6.24246 10.0369 5.61374 9.37388 5.16792C8.71087 4.71638 7.87639 4.49062 6.87043 4.49062C6.15026 4.49062 5.52726 4.60493 5.00142 4.83355C4.47558 5.05646 4.06691 5.36511 3.77542 5.75949C3.48963 6.14815 3.34674 6.59111 3.34674 7.08837C3.34674 7.50561 3.44391 7.8657 3.63824 8.16863C3.83829 8.47156 4.09835 8.7259 4.41843 8.93167C4.74422 9.13171 5.09287 9.30032 5.46439 9.4375C5.8359 9.56896 6.19313 9.67756 6.53607 9.76329L8.25076 10.2091C8.81089 10.3463 9.38532 10.532 9.97403 10.7664C10.5627 11.0007 11.1086 11.3094 11.6116 11.6923C12.1145 12.0753 12.5203 12.5497 12.829 13.1155C13.1433 13.6814 13.3005 14.3587 13.3005 15.1474C13.3005 16.1419 13.0433 17.025 12.5289 17.7966C12.0202 18.5682 11.28 19.1769 10.3084 19.6228C9.34245 20.0686 8.1736 20.2915 6.80185 20.2915C5.48725 20.2915 4.34984 20.0829 3.38961 19.6656C2.42938 19.2484 1.67778 18.6568 1.13479 17.8909C0.591805 17.1193 0.291734 16.2048 0.234578 15.1474H2.89235C2.94379 15.7819 3.14955 16.3106 3.50964 16.7335C3.87544 17.1508 4.34126 17.4623 4.90711 17.668C5.47868 17.8681 6.10454 17.9681 6.7847 17.9681C7.53345 17.9681 8.19932 17.8509 8.78232 17.6166C9.37103 17.3765 9.83399 17.045 10.1712 16.6221C10.5084 16.1934 10.677 15.6933 10.677 15.1217C10.677 14.6016 10.5284 14.1758 10.2312 13.8443C9.93973 13.5128 9.5425 13.2384 9.03952 13.0212C8.54226 12.804 7.97927 12.6125 7.35055 12.4468L5.27577 11.8809C3.86972 11.498 2.75517 10.935 1.93212 10.192C1.11479 9.44893 0.706118 8.46584 0.706118 7.24269C0.706118 6.23103 0.980469 5.34796 1.52917 4.5935C2.07787 3.83903 2.8209 3.25318 3.75827 2.83594C4.69563 2.41298 5.75303 2.2015 6.93045 2.2015C8.1193 2.2015 9.16812 2.41012 10.0769 2.82736C10.9914 3.24461 11.7116 3.81903 12.2374 4.55063C12.7633 5.27651 13.0376 6.111 13.0605 7.05408H10.5056Z" fill="#5391F6"/>
</svg>
