<svg width="12" height="19" viewBox="0 0 12 19" fill="none" xmlns="http://www.w3.org/2000/svg">
<path opacity="0.7" d="M4.52679 12.9502V12.7873C4.53822 11.7242 4.64396 10.8783 4.844 10.2496C5.04977 9.62087 5.34126 9.11218 5.7185 8.72352C6.09573 8.33486 6.55012 7.98049 7.08168 7.66041C7.42461 7.44322 7.73326 7.2003 8.00761 6.93167C8.28196 6.66303 8.49915 6.35439 8.65919 6.00573C8.81923 5.65708 8.89925 5.27127 8.89925 4.84832C8.89925 4.33962 8.77922 3.89952 8.53916 3.528C8.29911 3.15649 7.97903 2.8707 7.57894 2.67066C7.18456 2.46489 6.74445 2.36201 6.25862 2.36201C5.81852 2.36201 5.39842 2.45346 4.99833 2.63636C4.59823 2.81926 4.26672 3.10505 4.0038 3.49371C3.74089 3.87666 3.58942 4.37106 3.54941 4.97692H0.94308C0.98309 3.9481 1.24315 3.07933 1.72327 2.37059C2.20338 1.65613 2.83781 1.116 3.62657 0.750202C4.42105 0.384402 5.2984 0.201501 6.25862 0.201501C7.3103 0.201501 8.23052 0.398691 9.01928 0.793071C9.80804 1.18173 10.4196 1.72758 10.854 2.4306C11.2941 3.12791 11.5142 3.94239 11.5142 4.87404C11.5142 5.51419 11.4141 6.09147 11.2141 6.60587C11.014 7.11457 10.7283 7.56896 10.3567 7.96905C9.99094 8.36915 9.55083 8.72352 9.03642 9.03216C8.5506 9.33509 8.15622 9.64945 7.85329 9.97524C7.55607 10.301 7.33888 10.6868 7.2017 11.1327C7.06453 11.5785 6.99023 12.13 6.97879 12.7873V12.9502H4.52679ZM5.82138 18.1629C5.3527 18.1629 4.94974 17.9971 4.61252 17.6656C4.2753 17.3284 4.10669 16.9226 4.10669 16.4482C4.10669 15.9795 4.2753 15.5794 4.61252 15.2479C4.94974 14.9107 5.3527 14.7421 5.82138 14.7421C6.28434 14.7421 6.68444 14.9107 7.02166 15.2479C7.3646 15.5794 7.53607 15.9795 7.53607 16.4482C7.53607 16.7626 7.45605 17.0512 7.29601 17.3141C7.14169 17.5713 6.93593 17.7771 6.67872 17.9314C6.42152 18.0857 6.13574 18.1629 5.82138 18.1629Z" fill="#5391F6"/>
</svg>
