<svg width="21" height="23" viewBox="0 0 21 23" fill="none" xmlns="http://www.w3.org/2000/svg">
<path d="M8.65735 22.3721C8.58808 21.3961 8.33234 19.9906 8.03759 18.966C7.3339 16.5197 6.14882 14.6148 4.63826 13.5019C3.68342 12.7984 2.38636 12.291 1.28845 12.1915C1.07824 12.1724 0.90625 12.1403 0.90625 12.1201C0.90625 12.0999 1.07824 12.0677 1.28845 12.0487C1.80512 12.0019 2.59666 11.7966 3.18157 11.5576C5.44995 10.6311 7.11717 8.47383 8.03759 5.27417C8.33234 4.24954 8.58808 2.84405 8.65735 1.8681C8.67538 1.61418 8.70613 1.40643 8.72569 1.40643C8.74525 1.40643 8.77601 1.61418 8.79403 1.8681C8.86331 2.84405 9.11905 4.24954 9.41379 5.27417C10.1177 7.72112 11.302 9.62594 12.8097 10.7359C13.7692 11.4423 15.0635 11.9491 16.1629 12.0487C16.3731 12.0677 16.5451 12.0999 16.5451 12.1201C16.5451 12.1403 16.3731 12.1724 16.1629 12.1915C15.6463 12.2383 14.8547 12.4436 14.2698 12.6825C11.997 13.6108 10.336 15.76 9.41379 18.966C9.11905 19.9906 8.86331 21.3961 8.79403 22.3721C8.77601 22.626 8.74525 22.8337 8.72569 22.8337C8.70613 22.8337 8.67538 22.626 8.65735 22.3721ZM17.1665 9.08624C17.0007 7.74014 16.5222 6.61181 15.8304 5.9354C15.5205 5.63231 14.9815 5.33917 14.6402 5.28798C14.515 5.26921 14.4126 5.23619 14.4126 5.2146C14.4126 5.19302 14.515 5.16 14.6402 5.14122C14.9815 5.09003 15.5205 4.79689 15.8304 4.4938C16.5222 3.81739 17.0007 2.68907 17.1665 1.34296C17.2001 1.07068 17.2403 0.8479 17.256 0.8479C17.2717 0.8479 17.3119 1.07068 17.3455 1.34296C17.4666 2.32606 17.7729 3.24709 18.1939 3.89444C18.6179 4.54625 19.3018 5.04926 19.8926 5.14372C20.1595 5.18641 20.1559 5.24337 19.8836 5.28687C19.5341 5.34272 18.9827 5.64046 18.6828 5.93522C17.9875 6.61886 17.5043 7.75611 17.3441 9.08624C17.3113 9.35852 17.2717 9.5813 17.256 9.5813C17.2403 9.5813 17.2001 9.35852 17.1665 9.08624Z" fill="#5391F6"/>
</svg>
